<svg width="36" height="36" viewBox="0 0 36 36" fill="none" xmlns="http://www.w3.org/2000/svg">
<path d="M18.0001 22.25C20.3473 22.25 22.2501 20.3472 22.2501 18C22.2501 15.6528 20.3473 13.75 18.0001 13.75C15.6529 13.75 13.7501 15.6528 13.7501 18C13.7501 20.3472 15.6529 22.25 18.0001 22.25Z" stroke="#03120F" stroke-width="4" stroke-linecap="round" stroke-linejoin="round"/>
<path d="M28.4834 22.25C28.2948 22.6773 28.2386 23.1513 28.3219 23.6108C28.4052 24.0704 28.6243 24.4945 28.9509 24.8283L29.0359 24.9133C29.2993 25.1765 29.5083 25.489 29.6509 25.8329C29.7935 26.1769 29.8669 26.5456 29.8669 26.9179C29.8669 27.2903 29.7935 27.6589 29.6509 28.0029C29.5083 28.3469 29.2993 28.6594 29.0359 28.9225C28.7728 29.1859 28.4603 29.3949 28.1163 29.5375C27.7724 29.6801 27.4037 29.7535 27.0313 29.7535C26.659 29.7535 26.2903 29.6801 25.9463 29.5375C25.6024 29.3949 25.2899 29.1859 25.0267 28.9225L24.9417 28.8375C24.6079 28.5109 24.1838 28.2918 23.7242 28.2085C23.2647 28.1252 22.7907 28.1814 22.3634 28.37C21.9444 28.5496 21.5871 28.8478 21.3353 29.2278C21.0836 29.6079 20.9486 30.0533 20.9467 30.5092V30.75C20.9467 31.5014 20.6482 32.2221 20.1169 32.7535C19.5855 33.2848 18.8649 33.5833 18.1134 33.5833C17.362 33.5833 16.6413 33.2848 16.1099 32.7535C15.5786 32.2221 15.2801 31.5014 15.2801 30.75V30.6225C15.2691 30.1536 15.1173 29.6988 14.8445 29.3173C14.5716 28.9358 14.1903 28.6452 13.7501 28.4833C13.3228 28.2947 12.8488 28.2385 12.3892 28.3218C11.9297 28.4052 11.5056 28.6242 11.1717 28.9508L11.0867 29.0358C10.8236 29.2993 10.5111 29.5082 10.1672 29.6508C9.8232 29.7934 9.45451 29.8668 9.08216 29.8668C8.70982 29.8668 8.34113 29.7934 7.99717 29.6508C7.65321 29.5082 7.34072 29.2993 7.07758 29.0358C6.81415 28.7727 6.60516 28.4602 6.46258 28.1162C6.31999 27.7723 6.2466 27.4036 6.2466 27.0312C6.2466 26.6589 6.31999 26.2902 6.46258 25.9462C6.60516 25.6023 6.81415 25.2898 7.07758 25.0267L7.16258 24.9417C7.48917 24.6078 7.70826 24.1837 7.79159 23.7242C7.87491 23.2646 7.81866 22.7906 7.63008 22.3633C7.4505 21.9443 7.15232 21.587 6.77224 21.3353C6.39216 21.0836 5.94678 20.9485 5.49091 20.9467H5.25008C4.49863 20.9467 3.77797 20.6482 3.24661 20.1168C2.71526 19.5854 2.41675 18.8648 2.41675 18.1133C2.41675 17.3619 2.71526 16.6412 3.24661 16.1099C3.77797 15.5785 4.49863 15.28 5.25008 15.28H5.37758C5.84649 15.269 6.30125 15.1172 6.68276 14.8444C7.06426 14.5715 7.35485 14.1902 7.51675 13.75C7.70533 13.3227 7.76158 12.8487 7.67825 12.3892C7.59493 11.9296 7.37584 11.5055 7.04925 11.1717L6.96425 11.0867C6.70081 10.8235 6.49183 10.511 6.34925 10.1671C6.20666 9.82312 6.13327 9.45442 6.13327 9.08208C6.13327 8.70974 6.20666 8.34104 6.34925 7.99708C6.49183 7.65312 6.70081 7.34064 6.96425 7.0775C7.22739 6.81406 7.53987 6.60508 7.88383 6.46249C8.22779 6.31991 8.59649 6.24652 8.96883 6.24652C9.34118 6.24652 9.70987 6.31991 10.0538 6.46249C10.3978 6.60508 10.7103 6.81406 10.9734 7.0775L11.0584 7.1625C11.3923 7.48909 11.8164 7.70818 12.2759 7.7915C12.7355 7.87483 13.2095 7.81858 13.6367 7.63H13.7501C14.1691 7.45042 14.5264 7.15223 14.7781 6.77216C15.0299 6.39208 15.1649 5.9467 15.1667 5.49083V5.25C15.1667 4.49855 15.4653 3.77788 15.9966 3.24653C16.528 2.71518 17.2486 2.41666 18.0001 2.41666C18.7515 2.41666 19.4722 2.71518 20.0035 3.24653C20.5349 3.77788 20.8334 4.49855 20.8334 5.25V5.3775C20.8352 5.83336 20.9703 6.27875 21.222 6.65882C21.4737 7.0389 21.8311 7.33708 22.2501 7.51666C22.6774 7.70524 23.1514 7.7615 23.6109 7.67817C24.0705 7.59484 24.4945 7.37576 24.8284 7.04916L24.9134 6.96416C25.1766 6.70073 25.489 6.49175 25.833 6.34916C26.177 6.20658 26.5457 6.13319 26.918 6.13319C27.2903 6.13319 27.659 6.20658 28.003 6.34916C28.347 6.49175 28.6594 6.70073 28.9226 6.96416C29.186 7.2273 29.395 7.53979 29.5376 7.88375C29.6802 8.22771 29.7536 8.5964 29.7536 8.96875C29.7536 9.34109 29.6802 9.70978 29.5376 10.0537C29.395 10.3977 29.186 10.7102 28.9226 10.9733L28.8376 11.0583C28.511 11.3922 28.2919 11.8163 28.2086 12.2758C28.1252 12.7354 28.1815 13.2094 28.3701 13.6367V13.75C28.5497 14.169 28.8478 14.5264 29.2279 14.7781C29.608 15.0298 30.0534 15.1648 30.5092 15.1667H30.7501C31.5015 15.1667 32.2222 15.4652 32.7535 15.9965C33.2849 16.5279 33.5834 17.2486 33.5834 18C33.5834 18.7514 33.2849 19.4721 32.7535 20.0035C32.2222 20.5348 31.5015 20.8333 30.7501 20.8333H30.6226C30.1667 20.8351 29.7213 20.9702 29.3413 21.2219C28.9612 21.4736 28.663 21.831 28.4834 22.25Z" stroke="#03120F" stroke-width="4" stroke-linecap="round" stroke-linejoin="round"/>
</svg>
